<svg xmlns="http://www.w3.org/2000/svg" xmlns:xlink="http://www.w3.org/1999/xlink" version="1.1" x="0px" y="0px" viewBox="206 206 100 125" enable-background="new 206 206 100 100" xml:space="preserve"><g><path fill="#000000" d="M299.6,217.066c-0.605,4.143-2.504,7.948-5.647,11.326l-10.709-10.707c3.38-3.143,7.185-5.042,11.326-5.649   c2.331-0.341,4.16-0.16,5.052-0.02C299.761,212.907,299.941,214.737,299.6,217.066z"/><path fill="#000000" d="M292.572,229.799l-7.299,7.297c-0.002,0.004-0.004,0.006-0.008,0.01c-0.028,0.03-0.053,0.063-0.079,0.097   c-0.014,0.02-0.03,0.035-0.043,0.055c-0.018,0.028-0.03,0.057-0.045,0.087c-0.014,0.03-0.032,0.057-0.043,0.087   c-0.008,0.022-0.014,0.045-0.02,0.069c-0.014,0.039-0.026,0.079-0.034,0.118c0,0.004-0.002,0.008-0.002,0.012l-1.14,6.761   l-29.817,29.817l-4.724-0.611c-0.024-0.004-0.045-0.002-0.069-0.002c-0.026-0.002-0.051-0.008-0.077-0.008   c-0.01,0-0.018,0.004-0.026,0.004c-0.037,0.002-0.073,0.008-0.108,0.014c-0.03,0.004-0.059,0.008-0.087,0.014   c-0.034,0.008-0.065,0.022-0.097,0.034c-0.03,0.01-0.057,0.018-0.085,0.032c-0.03,0.014-0.057,0.032-0.085,0.049   c-0.026,0.016-0.053,0.03-0.077,0.047c-0.028,0.02-0.051,0.043-0.075,0.065c-0.024,0.02-0.045,0.039-0.065,0.061   c-0.024,0.024-0.043,0.051-0.063,0.077c-0.018,0.026-0.035,0.047-0.051,0.073c-0.018,0.028-0.032,0.057-0.045,0.087   c-0.014,0.028-0.03,0.057-0.039,0.087c-0.012,0.03-0.018,0.059-0.026,0.089c-0.01,0.034-0.02,0.067-0.026,0.103   c0,0.01-0.004,0.018-0.006,0.026c-0.002,0.026,0,0.049-0.002,0.073c0,0.026-0.006,0.047-0.006,0.073l0.104,5.349l-1.374,1.374   l-8.307-8.307l-8.149-8.147l1.388-1.386l5.194-0.045c0,0,0,0,0.002,0c0,0,0,0,0.002,0h0.016c0.035-0.002,0.073-0.002,0.108-0.008   c0.014-0.002,0.026-0.006,0.039-0.008c0.035-0.006,0.067-0.016,0.101-0.024c0.03-0.01,0.061-0.018,0.089-0.03   c0.032-0.012,0.061-0.026,0.089-0.039c0.03-0.016,0.057-0.03,0.085-0.047c0.026-0.016,0.051-0.035,0.075-0.055   c0.026-0.02,0.049-0.039,0.073-0.061c0.024-0.022,0.043-0.043,0.065-0.069c0.02-0.024,0.039-0.045,0.059-0.071   c0.018-0.028,0.034-0.053,0.049-0.081c0.016-0.028,0.032-0.055,0.045-0.083c0.012-0.03,0.024-0.059,0.034-0.089   c0.01-0.032,0.022-0.063,0.028-0.095c0.008-0.03,0.012-0.061,0.016-0.093c0.006-0.034,0.01-0.067,0.01-0.103   c0.002-0.014,0.004-0.026,0.004-0.039c0-0.02-0.004-0.039-0.006-0.059c-0.002-0.02,0-0.039-0.002-0.059l-0.613-4.724l29.819-29.819   l6.761-1.138c0.004,0,0.006-0.002,0.01-0.004c0.041-0.006,0.079-0.02,0.118-0.032c0.024-0.008,0.047-0.012,0.071-0.02   c0.03-0.012,0.057-0.03,0.085-0.043c0.03-0.016,0.059-0.03,0.087-0.047c0.02-0.012,0.037-0.03,0.057-0.043   c0.034-0.026,0.067-0.049,0.097-0.079c0.002-0.002,0.006-0.004,0.008-0.006l7.299-7.299L292.572,229.799z"/><path fill="#000000" d="M236.128,275.67c-0.385-0.385-1.009-0.385-1.394,0l-10.856,10.856c-0.385,0.385-0.385,1.009,0,1.394   c0.193,0.193,0.445,0.289,0.697,0.289c0.252,0,0.505-0.096,0.697-0.289l10.856-10.856   C236.513,276.68,236.513,276.055,236.128,275.67z"/><path fill="#000000" d="M224.845,279.424l6.821-6.821c0.385-0.385,0.385-1.009,0-1.394c-0.385-0.385-1.009-0.385-1.394,0   l-6.821,6.821c-0.385,0.385-0.385,1.009,0,1.394c0.193,0.193,0.445,0.289,0.697,0.289S224.653,279.616,224.845,279.424z"/><path fill="#000000" d="M226.741,268.604c0.385-0.385,0.385-1.009,0-1.394c-0.385-0.385-1.009-0.385-1.394,0l-2.996,2.996   c-0.385,0.385-0.385,1.009,0,1.394c0.193,0.193,0.445,0.289,0.697,0.289s0.505-0.096,0.697-0.289L226.741,268.604z"/><path fill="#000000" d="M240.199,289.448c0.192,0.192,0.445,0.289,0.697,0.289c0.252,0,0.505-0.096,0.697-0.289l2.996-2.996   c0.385-0.385,0.385-1.009,0-1.394c-0.385-0.385-1.009-0.385-1.394,0l-2.996,2.996C239.814,288.438,239.814,289.062,240.199,289.448   z"/><path fill="#000000" d="M240.59,280.133c-0.385-0.385-1.009-0.385-1.394,0l-6.821,6.82c-0.385,0.385-0.385,1.009,0,1.394   c0.192,0.193,0.445,0.289,0.697,0.289c0.252,0,0.505-0.096,0.697-0.289l6.821-6.82C240.975,281.142,240.975,280.518,240.59,280.133   z"/><path fill="#000000" d="M238.231,291.415c-0.385-0.385-1.009-0.385-1.394,0l-2.415,2.414c-0.385,0.385-0.385,1.009,0,1.394   c0.192,0.193,0.445,0.289,0.697,0.289c0.252,0,0.505-0.096,0.697-0.289l2.415-2.414C238.616,292.424,238.616,291.8,238.231,291.415   z"/><path fill="#000000" d="M218.989,273.568l-2.415,2.415c-0.385,0.385-0.385,1.009,0,1.394c0.193,0.193,0.445,0.289,0.697,0.289   c0.252,0,0.505-0.096,0.697-0.289l2.415-2.415c0.385-0.385,0.385-1.009,0-1.394C219.998,273.182,219.374,273.182,218.989,273.568z"/><path fill="#000000" d="M277.655,259.049L248.404,288.3c-0.385,0.385-0.385,1.009,0,1.394c0.193,0.193,0.445,0.289,0.697,0.289   c0.252,0,0.505-0.096,0.697-0.289l29.251-29.251c0.385-0.385,0.385-1.009,0-1.394C278.665,258.664,278.04,258.664,277.655,259.049z   "/><path fill="#000000" d="M245.065,291.639l-6.838,6.838c-0.385,0.385-0.385,1.009,0,1.394c0.193,0.193,0.445,0.289,0.697,0.289   c0.252,0,0.505-0.096,0.697-0.289l6.838-6.838c0.385-0.385,0.385-1.009,0-1.394S245.45,291.254,245.065,291.639z"/><path fill="#000000" d="M222.945,263.828c0.252,0,0.505-0.096,0.697-0.289l29.252-29.251c0.385-0.385,0.385-1.009,0-1.394   c-0.385-0.385-1.009-0.385-1.394,0l-29.252,29.252c-0.385,0.385-0.385,1.009,0,1.394   C222.441,263.731,222.693,263.828,222.945,263.828z"/><path fill="#000000" d="M220.304,265.484c-0.385-0.385-1.009-0.385-1.394,0l-6.417,6.417c-0.385,0.385-0.385,1.009,0,1.394   c0.193,0.193,0.445,0.289,0.697,0.289s0.505-0.096,0.697-0.289l6.417-6.417C220.689,266.493,220.689,265.869,220.304,265.484z"/></g><text x="206" y="321" fill="#000000" font-size="5px" font-weight="bold" font-family="'Helvetica Neue', Helvetica, Arial-Unicode, Arial, Sans-serif">Created by Cuby Design</text><text x="206" y="326" fill="#000000" font-size="5px" font-weight="bold" font-family="'Helvetica Neue', Helvetica, Arial-Unicode, Arial, Sans-serif">from the Noun Project</text></svg>