<svg xmlns="http://www.w3.org/2000/svg" data-name="Layer 1" viewBox="0 0 100 125" x="0px" y="0px"><title>Artboard 46</title><path d="M39.13,93.19a38.57,38.57,0,0,0,10.49,2,42.81,42.81,0,0,0,14-1.63,44.3,44.3,0,0,0,14.62-7.37A44.74,44.74,0,0,0,95.42,56.38,44.31,44.31,0,0,0,94.51,40a42.84,42.84,0,0,0-5.56-12.93A38.65,38.65,0,0,0,82,19c-.31-.27-1,0-1.52.54s-.67,1.1-.45,1.37a49.29,49.29,0,0,1,5.5,8.21,43.77,43.77,0,0,1,4.27,12,42.29,42.29,0,0,1,.34,14.56A41.63,41.63,0,0,1,74.95,82a42.33,42.33,0,0,1-12.78,7,43.83,43.83,0,0,1-12.52,2.29,49.38,49.38,0,0,1-9.87-.65c-.37-.06-.82.5-1,1.23S38.79,93.08,39.13,93.19Z"/><path d="M76.33,12.43h0a2.74,2.74,0,0,0-2.75,2.74c0,4.21.44,8.43,1.37,10.53a4.32,4.32,0,0,0,1.44.13,3.56,3.56,0,0,0,1.24-.12A25,25,0,0,0,79,17.87a25.16,25.16,0,0,0,7.85-1.28A4.4,4.4,0,0,0,87,15.12a3.67,3.67,0,0,0-.12-1.28c-2.09-.93-6.31-1.41-10.52-1.42Z"/><path d="M50.35,8.75a49.38,49.38,0,0,1,9.87.65c.37.06.82-.5,1-1.23s0-1.24-.34-1.36a38.57,38.57,0,0,0-10.49-2,42.81,42.81,0,0,0-14,1.63,44.3,44.3,0,0,0-14.62,7.37A44.74,44.74,0,0,0,4.58,43.62,44.31,44.31,0,0,0,5.49,60a42.84,42.84,0,0,0,5.56,12.93A38.65,38.65,0,0,0,18,81c.31.27,1,0,1.52-.54s.67-1.1.45-1.37a49.29,49.29,0,0,1-5.5-8.21,43.77,43.77,0,0,1-4.27-12,42.29,42.29,0,0,1-.34-14.56A41.63,41.63,0,0,1,25.06,18a42.33,42.33,0,0,1,12.78-7A43.83,43.83,0,0,1,50.35,8.75Z"/><path d="M22.38,74.29A25,25,0,0,0,21,82.13a25.16,25.16,0,0,0-7.85,1.28A4.4,4.4,0,0,0,13,84.88a3.67,3.67,0,0,0,.12,1.28c2.09.93,6.31,1.41,10.52,1.42h0a2.74,2.74,0,0,0,2.75-2.74c0-4.21-.44-8.43-1.37-10.53a4.32,4.32,0,0,0-1.44-.13A3.56,3.56,0,0,0,22.38,74.29Z"/><path d="M35.57,70.29c.53.42,1,.89,1.62,1.27s1.14.8,1.65,1.12L42,74.74,48.58,79a2.62,2.62,0,0,0,2.79,0l0,0c3.56-2.2,7.14-4.4,10.85-6.75A23.94,23.94,0,0,0,73.09,54l.07-1.82c0-.6,0-1.21-.07-1.81l-.2-1.78L72.65,47,70.78,34.68v-.06a2.52,2.52,0,0,0-2.52-2.14,26.35,26.35,0,0,1-9.41-1.41,21.82,21.82,0,0,1-7.32-4.51l-.1-.09a2.1,2.1,0,0,0-2.92.09A22.21,22.21,0,0,1,40.41,32a25.53,25.53,0,0,1-4.09,1.16c-.66.14-1.3.23-1.93.33l-2.19.26a.85.85,0,0,0-.74.57,1,1,0,0,0,.36.83c.24.26.53.51.75.74s.36.43.44.48a.51.51,0,0,0,.16.08s.29,0,.43,0h1c.69,0,1.41,0,2.16-.13a26,26,0,0,0,4.77-.89,23.9,23.9,0,0,0,6.86-3.26c-1.52,9.2-1.54,31.14-.05,40.45l-3.59-2.21-3.23-2c-.56-.33-1-.64-1.47-.93s-.87-.65-1.31-1a19.43,19.43,0,0,1-7.14-15.7c.09-1.79.32-3.48.43-5.11.25-3.25.38-6.23.51-8.86A3.24,3.24,0,0,0,31.69,35c-.44-.48-.86-.52-1-.08-.61,2.59-1.36,5.81-2.11,9.6-.35,1.89-.79,3.9-1,6a22.85,22.85,0,0,0,.36,6.77A23.51,23.51,0,0,0,35.57,70.29ZM66,37.5l1.35,10.27.21,1.58.14,1.41,0,1.4-.07,1.4a18.82,18.82,0,0,1-8.39,14.07L51.65,72.5c1.46-9.25,1.46-30.73,0-40.07a24.44,24.44,0,0,0,5.47,3.1A28.8,28.8,0,0,0,66,37.5Z"/><text x="0" y="115" fill="#000000" font-size="5px" font-weight="bold" font-family="'Helvetica Neue', Helvetica, Arial-Unicode, Arial, Sans-serif">Created by Gregor Cresnar</text><text x="0" y="120" fill="#000000" font-size="5px" font-weight="bold" font-family="'Helvetica Neue', Helvetica, Arial-Unicode, Arial, Sans-serif">from the Noun Project</text></svg>